<svg id="ewt_logo" xmlns="http://www.w3.org/2000/svg" width="220.35" height="41.223" viewBox="0 0 220.35 41.223">
  <path id="Path_433" data-name="Path 433" d="M1.71,26.83v4.4H.65V20.68H3.81a3.74,3.74,0,0,1,2.65.82,2.93,2.93,0,0,1,.88,2.26A2.85,2.85,0,0,1,6.43,26a3.85,3.85,0,0,1-2.62.8Zm4-1.46a2.09,2.09,0,0,0,.6-1.61,2.14,2.14,0,0,0-.6-1.64,2.83,2.83,0,0,0-2-.56h-2v4.37h2a2.78,2.78,0,0,0,1.97-.56Z" transform="translate(-0.65 -0.3)" fill="#fff"/>
  <path id="Path_434" data-name="Path 434" d="M16.42,21.25a5,5,0,0,1,1.84,1.91,6.23,6.23,0,0,1,0,5.58,4.93,4.93,0,0,1-1.84,1.92,5,5,0,0,1-2.63.69,5,5,0,0,1-2.63-.69,4.93,4.93,0,0,1-1.84-1.92,6.23,6.23,0,0,1,0-5.58,4.967,4.967,0,0,1,4.47-2.6,5,5,0,0,1,2.63.69Zm-4.7.82a3.72,3.72,0,0,0-1.45,1.54,5.32,5.32,0,0,0,0,4.67,3.72,3.72,0,0,0,1.45,1.54,4.24,4.24,0,0,0,4.14,0,3.81,3.81,0,0,0,1.46-1.54,5.41,5.41,0,0,0,0-4.67,3.81,3.81,0,0,0-1.46-1.54,4.24,4.24,0,0,0-4.14,0Z" transform="translate(-0.65 -0.3)" fill="#fff"/>
  <path id="Path_435" data-name="Path 435" d="M33.46,20.68,30.73,31.23H29.48l-2.64-9-2.65,9H22.94L20.21,20.68h1.17l2.2,9.25,2.66-9.25h1.19l2.66,9.26,2.22-9.26Z" transform="translate(-0.65 -0.3)" fill="#fff"/>
  <path id="Path_436" data-name="Path 436" d="M36.17,21.53v4h4.11v.83H36.17v4h4.56v.87H35.1V20.68h5.63v.85Z" transform="translate(-0.65 -0.3)" fill="#fff"/>
  <path id="Path_437" data-name="Path 437" d="M48.22,31.23l-2.89-4.4H43.62v4.4H42.56V20.68h3.23a3.72,3.72,0,0,1,2.66.84,3,3,0,0,1,.87,2.26,2.89,2.89,0,0,1-.74,2.09,3.33,3.33,0,0,1-2.15.93l3,4.43ZM43.62,26h2.1c1.69,0,2.54-.74,2.54-2.2s-.85-2.25-2.54-2.25h-2.1Z" transform="translate(-0.65 -0.3)" fill="#fff"/>
  <path id="Path_438" data-name="Path 438" d="M52.14,21.53v4h4.11v.83H52.14v4H56.7v.87H51.07V20.68H56.7v.85Z" transform="translate(-0.65 -0.3)" fill="#fff"/>
  <path id="Path_439" data-name="Path 439" d="M66.62,28.77a4.27,4.27,0,0,1-1.89,1.82,6.51,6.51,0,0,1-3,.64h-3.2V20.68h3.18a5.67,5.67,0,0,1,4.11,1.4A5.11,5.11,0,0,1,67.27,26a5.87,5.87,0,0,1-.65,2.77ZM65,29.14A4.26,4.26,0,0,0,66.21,26,4.28,4.28,0,0,0,65,22.75a4.67,4.67,0,0,0-3.4-1.14h-2v8.68h2A4.63,4.63,0,0,0,65,29.14Z" transform="translate(-0.65 -0.3)" fill="#fff"/>
  <path id="Path_440" data-name="Path 440" d="M79.51,26.68a2.54,2.54,0,0,1,.61,1.71,2.62,2.62,0,0,1-.86,2.05,3.61,3.61,0,0,1-2.52.79H73.08V20.68H76.7a3.49,3.49,0,0,1,2.38.71,2.41,2.41,0,0,1,.81,1.91,2.37,2.37,0,0,1-.56,1.7,2.58,2.58,0,0,1-1.42.82A2.72,2.72,0,0,1,79.51,26.68Zm-5.37-1.29h2.42a2.49,2.49,0,0,0,1.69-.51,1.83,1.83,0,0,0,.57-1.42,1.77,1.77,0,0,0-.57-1.39,2.56,2.56,0,0,0-1.75-.51H74.14Zm4.26,4.4a2.07,2.07,0,0,0,0-3,2.79,2.79,0,0,0-1.86-.56h-2.4v4.14h2.42a2.82,2.82,0,0,0,1.84-.58Z" transform="translate(-0.65 -0.3)" fill="#fff"/>
  <path id="Path_441" data-name="Path 441" d="M89,20.68l-3.4,6.43v4.12H84.54V27.11l-3.41-6.43h1.21L85.06,26l2.73-5.31Z" transform="translate(-0.65 -0.3)" fill="#fff"/>
  <path id="Path_442" data-name="Path 442" d="M126.17,32.79l-.77.47a9.2,9.2,0,0,1-3.12.66,7.1,7.1,0,0,1-6.8-4.52,10.39,10.39,0,0,1-.77-4.54V17.3h3.69v8.6q0,3.74,3.12,4.63a2.41,2.41,0,0,0,.66.09q2.75,0,3.79-3.11a9.22,9.22,0,0,0,.18-1.71V17.3h3.58v7.64h0v9a7.63,7.63,0,0,1-4.34,7,8.06,8.06,0,0,1-3.2.58c0-2.21,0-3.29,0-3.23q2.73,0,3.78-3.1a9.39,9.39,0,0,0,.18-1.71v-.66Z" transform="translate(-0.65 -0.3)" fill="#fff"/>
  <path id="Path_443" data-name="Path 443" d="M130.73,17.3h3.69v8.6q0,3.74,3.13,4.63a6.569,6.569,0,0,0,.66.09q2.73,0,3.78-3.11a9.221,9.221,0,0,0,.18-1.71V17.3h3.59v9a7.62,7.62,0,0,1-4.34,7,9.24,9.24,0,0,1-3.12.67c-3.1,0-5.36-1.51-6.8-4.53a10.34,10.34,0,0,1-.77-4.53Z" transform="translate(-0.65 -0.3)" fill="#fff"/>
  <path id="Path_444" data-name="Path 444" d="M108.8,28.59s-1.61,2.06-3.67,2.06a4.71,4.71,0,0,1-4.4-3.65H113a9.08,9.08,0,0,0,.14-1.57,8.07,8.07,0,1,0-16.12,0,8.28,8.28,0,0,0,8.06,8.49,7.9,7.9,0,0,0,6.49-3.46Zm-3.67-8.3A4.71,4.71,0,0,1,109.52,24h-8.79a4.71,4.71,0,0,1,4.4-3.71Z" transform="translate(-0.65 -0.3)" fill="#fff"/>
  <path id="Path_445" data-name="Path 445" d="M111.72,30.21v-.06Z" transform="translate(-0.65 -0.3)" fill="#fff"/>
  <path id="Path_446" data-name="Path 446" d="M169.31,25.43a8.07,8.07,0,1,0-16.11,0,8.28,8.28,0,0,0,8.05,8.49,7.78,7.78,0,0,0,4.62-1.53v1.53h3.39V32.59h.05V25.53h0Zm-8.06,5a4.87,4.87,0,0,1-4.74-5,4.75,4.75,0,1,1,9.49,0,4.88,4.88,0,0,1-4.75,5Z" transform="translate(-0.65 -0.3)" fill="#fff"/>
  <path id="Path_447" data-name="Path 447" d="M153.45,6.22a4.11,4.11,0,0,0,.39-1.75,4.17,4.17,0,1,0-8.34,0,4.06,4.06,0,0,0,.4,1.77,4.17,4.17,0,1,0,1.9,8.07v19.6h5.35V30.7h-1.67V14.14a4.07,4.07,0,0,0,1.8.42,4.171,4.171,0,0,0,.17-8.34ZM146.38,13a2.57,2.57,0,1,1,1.868-.752A2.57,2.57,0,0,1,146.38,13Zm.72-8.49a2.516,2.516,0,1,0,0-.05Zm2.72,8.29Zm3.47.2a2.57,2.57,0,1,1,2.56-2.57A2.57,2.57,0,0,1,153.29,13Z" transform="translate(-0.65 -0.3)" fill="#fff"/>
  <path id="Path_448" data-name="Path 448" d="M178.91,17.39l-1.06,7.13h-1l-.79-4.63h0l-.77,4.63h-1l-1.06-7.13h1.08l.51,4.53h0l.8-4.53h.78l.84,4.64h0l.49-4.64Z" transform="translate(-0.65 -0.3)" fill="#fff"/>
  <path id="Path_449" data-name="Path 449" d="M183,24.52V17.39h3v1h-2v2.09h1.77v1H184V23.5h2v1Z" transform="translate(-0.65 -0.3)" fill="#fff"/>
  <path id="Path_450" data-name="Path 450" d="M190.2,24.52V17.39h1.5a2.09,2.09,0,0,1,.83.15,1.58,1.58,0,0,1,.57.4,1.42,1.42,0,0,1,.31.58,2.129,2.129,0,0,1,.1.67v.26a2.171,2.171,0,0,1,0,.49,1.11,1.11,0,0,1-.13.35,1.43,1.43,0,0,1-.52.48,1.12,1.12,0,0,1,.53.5,2.11,2.11,0,0,1,.17.91v.4a2.06,2.06,0,0,1-.46,1.44,1.89,1.89,0,0,1-1.46.5Zm1-6.17v2h.47a.76.76,0,0,0,.68-.25,1.3,1.3,0,0,0,.18-.75,1.12,1.12,0,0,0-.2-.72.86.86,0,0,0-.7-.24Zm0,2.87V23.5h.45a1.05,1.05,0,0,0,.48-.09.66.66,0,0,0,.27-.25,1.12,1.12,0,0,0,.11-.38V22.3a3.181,3.181,0,0,0,0-.47.8.8,0,0,0-.12-.34.62.62,0,0,0-.27-.21,1.44,1.44,0,0,0-.45-.06Z" transform="translate(-0.65 -0.3)" fill="#fff"/>
  <path id="Path_451" data-name="Path 451" d="M201.25,19.44h-1v-.23a1.08,1.08,0,0,0-.17-.6.6.6,0,0,0-.55-.26.66.66,0,0,0-.34.08.67.67,0,0,0-.21.2.77.77,0,0,0-.11.3,1.869,1.869,0,0,0,0,.34c0,.14,0,.26,0,.35a.61.61,0,0,0,.08.25.52.52,0,0,0,.17.19,1.36,1.36,0,0,0,.32.16l.78.32a1.79,1.79,0,0,1,.55.3,1.3,1.3,0,0,1,.33.41,1.79,1.79,0,0,1,.15.54,5,5,0,0,1,0,.7,3.58,3.58,0,0,1-.09.83,1.811,1.811,0,0,1-.29.66,1.33,1.33,0,0,1-.55.44,1.89,1.89,0,0,1-.83.16,1.73,1.73,0,0,1-.69-.13,1.39,1.39,0,0,1-.55-.36,1.64,1.64,0,0,1-.37-.53,1.67,1.67,0,0,1-.13-.67v-.38h1v.32a.84.84,0,0,0,.16.51.65.65,0,0,0,.56.22.87.87,0,0,0,.4-.07.54.54,0,0,0,.23-.22.8.8,0,0,0,.09-.33,3,3,0,0,0,0-.44v-.46a.72.72,0,0,0-.08-.29.77.77,0,0,0-.18-.18,1.8,1.8,0,0,0-.31-.15l-.73-.3a1.62,1.62,0,0,1-.89-.72,2.44,2.44,0,0,1-.22-1.11,2.371,2.371,0,0,1,.11-.76,1.61,1.61,0,0,1,.33-.62,1.46,1.46,0,0,1,.53-.42,1.87,1.87,0,0,1,.78-.16,1.63,1.63,0,0,1,.7.15,1.58,1.58,0,0,1,.54.37,1.52,1.52,0,0,1,.46,1.1v.49Z" transform="translate(-0.65 -0.3)" fill="#fff"/>
  <path id="Path_452" data-name="Path 452" d="M205.52,24.52V17.39h1v7.13Z" transform="translate(-0.65 -0.3)" fill="#fff"/>
  <path id="Path_453" data-name="Path 453" d="M211.67,24.52V18.35h-1.18v-1h3.39v1H212.7v6.17Z" transform="translate(-0.65 -0.3)" fill="#fff"/>
  <path id="Path_454" data-name="Path 454" d="M217.8,24.52V17.39h3v1h-2v2.09h1.77v1H218.8V23.5h2v1Z" transform="translate(-0.65 -0.3)" fill="#fff"/>
  <path id="Path_455" data-name="Path 455" d="M195.79,28a.6.6,0,0,0-.39.14.55.55,0,0,0-.16.44v3a.53.53,0,0,0,.16.43.58.58,0,0,0,.78,0,.52.52,0,0,0,.16-.43v-3a.55.55,0,0,0-.16-.44A.6.6,0,0,0,195.79,28Z" transform="translate(-0.65 -0.3)" fill="#fff"/>
  <path id="Path_456" data-name="Path 456" d="M203.78,28a.6.6,0,0,0-.39.14.55.55,0,0,0-.16.44v3a.53.53,0,0,0,.16.43.58.58,0,0,0,.78,0,.52.52,0,0,0,.16-.43v-3a.55.55,0,0,0-.16-.44A.6.6,0,0,0,203.78,28Z" transform="translate(-0.65 -0.3)" fill="#fff"/>
  <path id="Path_457" data-name="Path 457" d="M173.26,26.06v7.78H221V26.06Zm3.62,2h-.95V33h-.82V28h-.94v-.77h2.71Zm3.6,0h-1.62v1.68h1.41v.77h-1.41v1.67h1.62V33H178V27.24h2.44Zm3.93.87h-.82v-.27a.68.68,0,0,0-.13-.42.45.45,0,0,0-.37-.18.42.42,0,0,0-.41.19,1.14,1.14,0,0,0-.1.48V31.6a.82.82,0,0,0,.11.42.44.44,0,0,0,.39.16h.17a.32.32,0,0,0,.17-.09.59.59,0,0,0,.13-.17.79.79,0,0,0,0-.28v-.29h.82v.36a1.24,1.24,0,0,1-.1.5,1.17,1.17,0,0,1-.27.42,1.37,1.37,0,0,1-.42.29,1.06,1.06,0,0,1-.51.11,2,2,0,0,1-.47-.06,1.22,1.22,0,0,1-.75-.64,1.51,1.51,0,0,1-.12-.65V28.51a1.46,1.46,0,0,1,.09-.52,1.34,1.34,0,0,1,.28-.42,1.15,1.15,0,0,1,.42-.28,1.53,1.53,0,0,1,.54-.1,1.26,1.26,0,0,1,.94.38,1.46,1.46,0,0,1,.37,1ZM188.53,33h-.82V30.41h-1V33h-.82V27.24h.82v.33a2.33,2.33,0,0,1,1.58-.93,6.19,6.19,0,0,1,3.62.73,6.19,6.19,0,0,0-3.62-.73,2.33,2.33,0,0,0-1.58.93v2.12h1V27.24h.82Zm4.39,0h-.77l-1.25-3.43h0V33h-.82V27.24h.78l1.24,3.44h0V27.24h.81Zm4.24-1.34a1.49,1.49,0,0,1-.12.62,1.21,1.21,0,0,1-.31.42,1.17,1.17,0,0,1-.44.26,1.47,1.47,0,0,1-.5.09,1.41,1.41,0,0,1-.49-.09,1.35,1.35,0,0,1-.76-.68,1.49,1.49,0,0,1-.12-.62v-3a1.481,1.481,0,0,1,.12-.61,1.32,1.32,0,0,1,.32-.44,1.39,1.39,0,0,1,.44-.26,1.41,1.41,0,0,1,.49-.09,1.47,1.47,0,0,1,.5.09,1.5,1.5,0,0,1,.44.26A1.29,1.29,0,0,1,197,28a1.48,1.48,0,0,1,.12.61Zm4,1.34h-2.43V27.24h.82v4.89h1.62V33Zm4-1.34a1.491,1.491,0,0,1-.12.62,1.21,1.21,0,0,1-.31.42,1.17,1.17,0,0,1-.44.26,1.47,1.47,0,0,1-.5.09,1.37,1.37,0,0,1-.49-.09,1.35,1.35,0,0,1-.76-.68,1.49,1.49,0,0,1-.12-.62v-3a1.48,1.48,0,0,1,.12-.61,1.32,1.32,0,0,1,.32-.44,1.44,1.44,0,0,1,.93-.35,1.47,1.47,0,0,1,.5.09,1.5,1.5,0,0,1,.44.26A1.29,1.29,0,0,1,205,28a1.48,1.48,0,0,1,.12.61Zm4.22-2.73h-.82v-.29a.55.55,0,0,0-.16-.44.61.61,0,0,0-.78,0,.55.55,0,0,0-.16.44v3a.53.53,0,0,0,.16.43.58.58,0,0,0,.78,0,.52.52,0,0,0,.16-.43V30.53h-.65v-.72h1.47v1.8a1.459,1.459,0,0,1-.12.62,1.21,1.21,0,0,1-.31.42,1.29,1.29,0,0,1-.45.27,1.54,1.54,0,0,1-1,0,1.42,1.42,0,0,1-.76-.69,1.46,1.46,0,0,1-.12-.62v-3a1.48,1.48,0,0,1,.12-.61,1.32,1.32,0,0,1,.32-.44,1.4,1.4,0,0,1,1.42-.26,1.43,1.43,0,0,1,.45.26,1.29,1.29,0,0,1,.31.44,1.48,1.48,0,0,1,.12.61v.29ZM211.74,33h-.82V27.24h.82Zm4-4.94h-1.62v1.68h1.41v.77h-1.41v1.67h1.62V33H213.3V27.24h2.44Zm4,.88h-.82V28.7a.85.85,0,0,0-.14-.48.47.47,0,0,0-.44-.21.54.54,0,0,0-.27.07.44.44,0,0,0-.17.16.63.63,0,0,0-.09.24,1.18,1.18,0,0,0,0,.27,2.176,2.176,0,0,0,0,.28.59.59,0,0,0,.06.2.52.52,0,0,0,.14.16,1.17,1.17,0,0,0,.25.12l.63.25a1.64,1.64,0,0,1,.44.25,1,1,0,0,1,.26.32,1.89,1.89,0,0,1,.13.44,4.608,4.608,0,0,1,0,.56,3.529,3.529,0,0,1-.07.67,1.43,1.43,0,0,1-.24.53,1.18,1.18,0,0,1-.44.35,1.62,1.62,0,0,1-.66.13,1.47,1.47,0,0,1-.56-.11,1.21,1.21,0,0,1-.44-.29,1.3,1.3,0,0,1-.29-.43,1.32,1.32,0,0,1-.11-.53v-.31h.82v.26a.67.67,0,0,0,.13.41.53.53,0,0,0,.45.18.73.73,0,0,0,.32-.06.42.42,0,0,0,.18-.17.77.77,0,0,0,.08-.27c0-.11,0-.22,0-.35a3.417,3.417,0,0,0,0-.37.58.58,0,0,0-.06-.23.54.54,0,0,0-.15-.15l-.24-.12-.59-.24a1.36,1.36,0,0,1-.71-.57,2.243,2.243,0,0,1-.09-1.51,1.58,1.58,0,0,1,.26-.5,1.27,1.27,0,0,1,.43-.33,1.54,1.54,0,0,1,.63-.12,1.26,1.26,0,0,1,.55.11,1.35,1.35,0,0,1,.44.29,1.25,1.25,0,0,1,.37.89v.4Z" transform="translate(-0.65 -0.3)" fill="#fff"/>
</svg>
