<svg xmlns="http://www.w3.org/2000/svg" width="111.149" height="111.17" viewBox="0 0 111.149 111.17">
  <g id="Elearning_Global_Education" data-name="Elearning_Global Education" transform="translate(0.25 0.253)">
    <path id="Path_10660" data-name="Path 10660" d="M185.924,227.258a2.058,2.058,0,0,0-.956,2.782A38.747,38.747,0,0,1,188.88,245.2H172.825a97.377,97.377,0,0,0-.753-10.027,2.09,2.09,0,1,0-4.144.551,86.388,86.388,0,0,1,.753,9.476H151.728v-7.042a2.087,2.087,0,1,0-4.173,0V245.2H130.6a86.964,86.964,0,0,1,.753-9.476,2.09,2.09,0,1,0-4.144-.551,83.465,83.465,0,0,0-.753,10.027H110.4a38.876,38.876,0,0,1,3.912-15.157,2.08,2.08,0,0,0-3.738-1.826,42.885,42.885,0,0,0-4.376,19.069,43.5,43.5,0,1,0,82.622-19.069A2.217,2.217,0,0,0,185.924,227.258Zm-4.318,42.861a87.282,87.282,0,0,0-10.81-3.8,86.9,86.9,0,0,0,2.029-16.953H188.88A39.284,39.284,0,0,1,181.606,270.12Zm-12.954-20.779a81.048,81.048,0,0,1-1.942,15.939,78.282,78.282,0,0,0-15.012-1.913V249.341ZM139.9,281.712c-2.608-2.985-4.724-7.3-6.318-12.4a71.372,71.372,0,0,1,13.939-1.739v18.808A13.084,13.084,0,0,1,139.9,281.712Zm11.795,4.666V267.569a76.4,76.4,0,0,1,13.939,1.739,34.337,34.337,0,0,1-6.318,12.4A13.084,13.084,0,0,1,151.7,286.377Zm-4.173-23.01a77.992,77.992,0,0,0-15.012,1.913,80.779,80.779,0,0,1-1.942-15.939h16.953Zm-37.181-14.026h16.084a82.675,82.675,0,0,0,2.029,16.953,94.2,94.2,0,0,0-10.81,3.8A38.9,38.9,0,0,1,110.344,249.341Zm10,24.14a85.623,85.623,0,0,1,9.158-3.159,37.953,37.953,0,0,0,7.216,14.055A39.191,39.191,0,0,1,120.342,273.481Zm42.166,10.925a38.388,38.388,0,0,0,7.216-14.055,81.617,81.617,0,0,1,9.158,3.159A39.746,39.746,0,0,1,162.508,284.407Z" transform="translate(-94.288 -180.115)" fill="#6b6b6b" stroke="#6b6b6b" stroke-width="0.5"/>
    <path id="Path_10661" data-name="Path 10661" d="M170.382,101.111V89l3.825-1.043a2.1,2.1,0,0,0,.145-4L121.116,65.234a2.28,2.28,0,0,0-1.391,0L66.488,83.984a2.1,2.1,0,0,0,.145,4L83.3,92.475v12.664a2.047,2.047,0,0,0,1.043,1.8c11.969,6.9,24.024,10.346,36.08,10.346s24.111-3.449,36.08-10.346a2.118,2.118,0,0,0,1.043-1.8V92.475l8.665-2.347v10.983a6.834,6.834,0,0,0-5.361,6.665v2.666a6.852,6.852,0,0,0,6.839,6.839H168.9a6.852,6.852,0,0,0,6.839-6.839v-2.666A6.858,6.858,0,0,0,170.382,101.111Zm-49.962-31.7,46.223,16.287L120.42,98.184,74.2,85.694Zm32.95,34.515c-21.88,12.2-44.021,12.2-65.9,0V93.605l32.4,8.752a1.694,1.694,0,0,0,.551.058,3.55,3.55,0,0,0,.551-.058l32.4-8.752Zm18.2,6.549a2.659,2.659,0,0,1-2.666,2.666h-1.217a2.659,2.659,0,0,1-2.666-2.666v-2.666a2.659,2.659,0,0,1,2.666-2.666H168.9a2.659,2.659,0,0,1,2.666,2.666Z" transform="translate(-65.096 -65.125)" fill="#6b6b6b" stroke="#6b6b6b" stroke-width="0.5"/>
  </g>
</svg>
