<svg xmlns="http://www.w3.org/2000/svg" width="107.28" height="128.215" viewBox="0 0 107.28 128.215">
  <g id="Group_3364" data-name="Group 3364" transform="translate(0)">
    <path id="Path_13594" data-name="Path 13594" d="M168.118,183.26a17.822,17.822,0,0,1,3.023-1.1,40.424,40.424,0,1,1,63.235-7.715,11.751,11.751,0,0,1,2.972.729,12.114,12.114,0,0,1,2.585,1.39,46.3,46.3,0,1,0-74.494,8.1C166.336,184.139,167.234,183.664,168.118,183.26Z" transform="translate(-138.768 -107.281)" fill="#6b6b6b"/>
    <path id="Path_13595" data-name="Path 13595" d="M144.112,292.728a5.267,5.267,0,0,0,4.51,2.6,5.2,5.2,0,0,0,2.574-.685l9-5.114a5.209,5.209,0,0,0,2.392-2.932c.023-.072.051-.139.072-.211a5.166,5.166,0,0,0-.469-3.894h30.273c11.688,0,31.84-25,34.877-35.453.048-.164.09-.323.13-.48.735-2.984.04-4.737-.869-5.754a4.419,4.419,0,0,0-1.149-.919l-.08-.044a9.753,9.753,0,0,0-2.778-.988,9.014,9.014,0,0,0-3.773.092c-5.229,1.226-9.652,6.623-12.442,10.225l-.492.636c-.673.864-1.379,1.786-2.145,2.71a8.119,8.119,0,0,0-1.123-1.213c-.1-.092-.218-.169-.328-.254-4-3.158-10.418-2.324-14.289-1.819a6.1,6.1,0,0,1-2.119.228,37.353,37.353,0,0,1-12.089-2.172,27.143,27.143,0,0,0-10.878-1.742,25.016,25.016,0,0,0-2.485.306,9.542,9.542,0,0,0-1.359.357,18.577,18.577,0,0,0-2.922,1.307c-.441.237-.886.495-1.333.766-1.249.758-2.511,1.624-3.721,2.519-1.774,1.311-3.432,2.673-4.763,3.819l-1.092-1.923a4.912,4.912,0,0,0-1.288-1.454,5.35,5.35,0,0,0-5.811-.46l-9.007,5.122a5.218,5.218,0,0,0-1.958,7.083Zm-5.227-35.615,1.613-.919,2.572,4.527.029.049,3.1,5.451,4.978,8.756,2.414,4.248,1.707,3,1.432,2.522-2.543,1.448-5.31,3.024-16.24-28.553Zm22.474-5.468a.651.651,0,0,0,.095-.02,16.3,16.3,0,0,1,5.209-.139,32.412,32.412,0,0,1,5.388,1.394,42.915,42.915,0,0,0,13.788,2.451c.72-.1,1.685-.113,2.954-.276,2.634-.348,7.4-.965,9.591.38a2.915,2.915,0,0,1,.392.285,2.4,2.4,0,0,1,.766,1.347,23.555,23.555,0,0,1-1.924,1.558,16.038,16.038,0,0,1-4.117,2.212c-.348.121-.7.231-1.057.322-.334.074-.676.142-1.033.2-.435.069-.962.124-1.567.173h-.377L174.5,261.48l-.057,2.47-.08,3.393c.46.02,10,.429,15.7.035a17.773,17.773,0,0,0,4.452-.706,21.263,21.263,0,0,0,5.975-2.709,20.515,20.515,0,0,0,4.372-3.738l.674-.809v-.034c.881-.919,1.694-1.868,2.47-2.8.807-.974,1.561-1.929,2.269-2.842l.515-.663c4.941-6.422,8.229-8.95,10.851-8.4.089.018.178.031.265.057a12.2,12.2,0,0,1-.961,2.773,59.891,59.891,0,0,1-6.632,10.661c-1.261,1.676-2.677,3.438-4.267,5.264-7,8.022-13.9,13.208-17.571,13.208h-33.6l-2.335-4.106-5.151-9.064-2.073-3.646c1.937-1.7,4.222-3.551,6.361-5.068a30.488,30.488,0,0,1,4.017-2.483,7.377,7.377,0,0,1,1.675-.627Z" transform="translate(-126.512 -167.117)" fill="#6b6b6b"/>
    <path id="Path_13596" data-name="Path 13596" d="M167.317,316.38a2.94,2.94,0,0,0,1.02-4.017l-2.885-4.854c-.029-.049-.063-.093-.1-.141a2.927,2.927,0,1,0-4.943,3.138l2.884,4.856a2.935,2.935,0,0,0,2.52,1.426,2.892,2.892,0,0,0,1.5-.409Z" transform="translate(-141.763 -197.817)" fill="#6b6b6b"/>
    <path id="Path_13597" data-name="Path 13597" d="M216.415,183.663a4.64,4.64,0,0,1-2.073-3.8H207.92v.153a9.534,9.534,0,0,0,3.524,8.02q3.5,2.726,10.557,2.911l.046,3.326h5.129v-3.406a17.533,17.533,0,0,0,10.176-3.919,10.724,10.724,0,0,0,3.677-8.376,10.007,10.007,0,0,0-2.127-6.614,17.014,17.014,0,0,0-7.27-4.443l-4.452-1.662V153.023a9.419,9.419,0,0,1,4.671,1.584,4.749,4.749,0,0,1,1.76,3.4h6.341a9.916,9.916,0,0,0-3.444-7.158,18.04,18.04,0,0,0-9.329-3.13v-3.4h-5.129v3.4a17.715,17.715,0,0,0-10.145,3.421,9.5,9.5,0,0,0-3.628,7.76,9.083,9.083,0,0,0,2.223,6.032,14.947,14.947,0,0,0,6.4,4.17l5.154,1.9v14.23a10.418,10.418,0,0,1-5.636-1.569ZM227.176,172.9a12.911,12.911,0,0,1,5.483,2.473,5.043,5.043,0,0,1,1.8,3.943,4.647,4.647,0,0,1-1.9,3.731,11.352,11.352,0,0,1-5.377,2.108Zm-10.7-11.19a4.68,4.68,0,0,1-1.639-3.7,4.094,4.094,0,0,1,1.992-3.361,10.162,10.162,0,0,1,5.209-1.7V164.2A14.953,14.953,0,0,1,216.479,161.709Z" transform="translate(-163.584 -124.131)" fill="#6b6b6b"/>
  </g>
</svg>
