<svg xmlns="http://www.w3.org/2000/svg" width="20.047" height="26.938" viewBox="0 0 20.047 26.938">
  <g id="Group_182" data-name="Group 182" transform="translate(0 0)">
    <path id="Path_114" data-name="Path 114" d="M-1134.3,6847.04a10.218,10.218,0,0,0-10.023,10.382,18.77,18.77,0,0,0,4.786,11.968,25.53,25.53,0,0,0,4.746,4.438.884.884,0,0,0,.491.15.86.86,0,0,0,.491-.15,25.553,25.553,0,0,0,4.746-4.438,18.77,18.77,0,0,0,4.786-11.968,10.218,10.218,0,0,0-10.023-10.382Zm0,24.872c-1.839-1.426-8.223-6.9-8.223-14.479a8.382,8.382,0,0,1,8.223-8.519,8.382,8.382,0,0,1,8.223,8.519c0,7.578-6.384,13.054-8.223,14.479Zm0,0" transform="translate(1144.32 -6847.04)" fill="#fff"/>
    <path id="Path_115" data-name="Path 115" d="M-1134.063,6853.32a4.05,4.05,0,0,0-3.977,4.119,4.051,4.051,0,0,0,3.977,4.118,4.05,4.05,0,0,0,3.976-4.118,4.05,4.05,0,0,0-3.976-4.119Zm0,6.383a2.228,2.228,0,0,1-2.186-2.253,2.231,2.231,0,0,1,2.186-2.265,2.223,2.223,0,0,1,2.176,2.265,2.22,2.22,0,0,1-2.176,2.253Zm0,0" transform="translate(1144.087 -6847.057)" fill="#fff"/>
  </g>
</svg>
