<svg xmlns="http://www.w3.org/2000/svg" width="189.472" height="81.095" viewBox="0 0 189.472 81.095">
  <g id="Group_2797" data-name="Group 2797" transform="translate(-1104.512 -359)">
    <g id="Group_2791" data-name="Group 2791" transform="translate(1104.512 359)">
      <g id="Group_2790" data-name="Group 2790">
        <g id="Group_2789" data-name="Group 2789">
          <path id="Path_10617" data-name="Path 10617" d="M1146.121,423.415c13.981,2.132,21.506-15.938,21.506-15.938,4.682-7.644,5.306-22.015,5.306-22.015.035-13.546-12.595-14.89-12.595-14.89a15.276,15.276,0,0,0-12.322,3.317c4.029,4.739,10.517,4.812,10.517,4.812-6.307,3.627-12.652-3.25-12.652-3.25-8.532-8.865-18.135-3.608-18.135-3.608-4.157-4.415-5.1-12.844-5.1-12.844-1.675,20.892-18.133,20.937-18.133,20.937,10.76.36,14.32,7.11,14.32,7.11-.275,54.627,47.045,53.043,47.045,53.043-24.082-6.309-26.3-23.124-26.3-23.124-2.276-14.979,6.779-14.167,6.779-14.167,8.531,1.659,6.161,13.744,6.161,13.744C1150.86,423.415,1146.121,423.415,1146.121,423.415Zm-23.328-31.446c-3.9-12.489-16.564-12.105-16.564-12.105,14.774-1.472,16.355-16.965,16.355-16.965,3,14.365,15.051,16.805,15.051,16.805C1124.173,381.964,1122.793,391.969,1122.793,391.969Z" transform="translate(-1104.512 -359)" fill="#f9cc12"/>
        </g>
      </g>
    </g>
    <g id="Group_2796" data-name="Group 2796" transform="translate(1186.079 397.618)">
      <g id="Group_2795" data-name="Group 2795" transform="translate(0)">
        <g id="Group_2793" data-name="Group 2793" transform="translate(10.709 22.056)">
          <g id="Group_2792" data-name="Group 2792">
            <path id="Path_10618" data-name="Path 10618" d="M1242.4,450.91a2.917,2.917,0,0,1,1.115-1.115,3.163,3.163,0,0,1,1.585-.4,3.121,3.121,0,0,1,1.8.527,2.76,2.76,0,0,1,1.08,1.458h-1.414a1.464,1.464,0,0,0-.593-.658,1.742,1.742,0,0,0-.883-.22,1.811,1.811,0,0,0-.952.25,1.7,1.7,0,0,0-.65.707,2.569,2.569,0,0,0,0,2.138,1.7,1.7,0,0,0,.65.711,1.818,1.818,0,0,0,.952.25,1.717,1.717,0,0,0,.883-.224,1.487,1.487,0,0,0,.593-.663h1.414a2.736,2.736,0,0,1-1.076,1.462,3.125,3.125,0,0,1-1.8.523,3.162,3.162,0,0,1-1.585-.4,2.931,2.931,0,0,1-1.115-1.111,3.411,3.411,0,0,1,0-3.236Z" transform="translate(-1241.988 -449.395)" fill="#6b6b6b"/>
            <path id="Path_10619" data-name="Path 10619" d="M1271.634,454.667h2.02v.975H1270.4v-6.13h1.229Z" transform="translate(-1251.331 -449.434)" fill="#6b6b6b"/>
            <path id="Path_10620" data-name="Path 10620" d="M1295.564,449.513v6.13h-1.229v-6.13Z" transform="translate(-1259.199 -449.434)" fill="#6b6b6b"/>
            <path id="Path_10621" data-name="Path 10621" d="M1321.139,455.638h-1.23l-2.783-4.207v4.207H1315.9V449.5h1.229l2.783,4.215V449.5h1.23Z" transform="translate(-1266.288 -449.43)" fill="#6b6b6b"/>
            <path id="Path_10622" data-name="Path 10622" d="M1344.666,449.513v6.13h-1.229v-6.13Z" transform="translate(-1275.343 -449.434)" fill="#6b6b6b"/>
            <path id="Path_10623" data-name="Path 10623" d="M1364.962,450.91a2.917,2.917,0,0,1,1.116-1.115,3.162,3.162,0,0,1,1.585-.4,3.121,3.121,0,0,1,1.8.527,2.759,2.759,0,0,1,1.08,1.458h-1.414a1.47,1.47,0,0,0-.593-.658,1.742,1.742,0,0,0-.883-.22,1.812,1.812,0,0,0-.953.25,1.7,1.7,0,0,0-.65.707,2.575,2.575,0,0,0,0,2.138,1.7,1.7,0,0,0,.65.711,1.818,1.818,0,0,0,.953.25,1.717,1.717,0,0,0,.883-.224,1.492,1.492,0,0,0,.593-.663h1.414a2.732,2.732,0,0,1-1.076,1.462,3.125,3.125,0,0,1-1.8.523,3.162,3.162,0,0,1-1.585-.4,2.93,2.93,0,0,1-1.116-1.111,3.411,3.411,0,0,1,0-3.236Z" transform="translate(-1282.286 -449.395)" fill="#6b6b6b"/>
          </g>
        </g>
        <g id="Group_2794" data-name="Group 2794">
          <path id="Path_10624" data-name="Path 10624" d="M1238.636,417.768v1.26a1.129,1.129,0,0,1-1.126,1.131h-2.7a.488.488,0,0,0-.487.489v11.227a1.129,1.129,0,0,1-1.126,1.131h-1.718a1.128,1.128,0,0,1-1.126-1.131V420.648a.489.489,0,0,0-.488-.489h-2.7a1.129,1.129,0,0,1-1.126-1.131v-1.26a1.129,1.129,0,0,1,1.126-1.131h10.352A1.129,1.129,0,0,1,1238.636,417.768Z" transform="translate(-1226.033 -416.569)" fill="#6b6b6b"/>
          <path id="Path_10625" data-name="Path 10625" d="M1259.319,421.3a5.823,5.823,0,0,1,1.346,4.069v6.471a1.129,1.129,0,0,1-1.126,1.131h-1.694a1.129,1.129,0,0,1-1.125-1.131v-5.934a2.865,2.865,0,0,0-.673-2.028,2.629,2.629,0,0,0-3.621,0,2.864,2.864,0,0,0-.673,2.028v5.934a1.129,1.129,0,0,1-1.126,1.131h-1.717a1.129,1.129,0,0,1-1.126-1.131V417.666a1.129,1.129,0,0,1,1.126-1.131h1.717a1.129,1.129,0,0,1,1.126,1.131v3.012a.291.291,0,0,0,.42.262l1.228-.606a5.24,5.24,0,0,1,2.344-.513A4.6,4.6,0,0,1,1259.319,421.3Z" transform="translate(-1233.184 -416.535)" fill="#6b6b6b"/>
          <path id="Path_10626" data-name="Path 10626" d="M1282.816,428.89h-8.908a2.674,2.674,0,0,0,.771,1.83,2.354,2.354,0,0,0,1.669.633,2.069,2.069,0,0,0,2.049-1.243h4.189a5.742,5.742,0,0,1-1.163,2.279,5.812,5.812,0,0,1-2.106,1.588,6.764,6.764,0,0,1-2.831.576,6.883,6.883,0,0,1-3.361-.806,5.73,5.73,0,0,1-2.3-2.3,7.106,7.106,0,0,1-.829-3.5,7.187,7.187,0,0,1,.818-3.5,5.652,5.652,0,0,1,2.29-2.3,7.459,7.459,0,0,1,6.7-.023,5.622,5.622,0,0,1,2.267,2.232,6.783,6.783,0,0,1,.817,3.384A9.993,9.993,0,0,1,1282.816,428.89Zm-3.959-2.187a2.025,2.025,0,0,0-.691-1.612,2.544,2.544,0,0,0-1.726-.6,2.494,2.494,0,0,0-1.669.575,2.556,2.556,0,0,0-.84,1.634Z" transform="translate(-1240.487 -418.115)" fill="#6b6b6b"/>
          <path id="Path_10627" data-name="Path 10627" d="M1333,428.89H1324.1a2.673,2.673,0,0,0,.771,1.83,2.354,2.354,0,0,0,1.668.633,2.068,2.068,0,0,0,2.049-1.243h4.189a5.75,5.75,0,0,1-1.162,2.279,5.812,5.812,0,0,1-2.106,1.588,6.763,6.763,0,0,1-2.831.576,6.883,6.883,0,0,1-3.361-.806,5.729,5.729,0,0,1-2.3-2.3,7.1,7.1,0,0,1-.829-3.5,7.188,7.188,0,0,1,.817-3.5,5.653,5.653,0,0,1,2.29-2.3,7.459,7.459,0,0,1,6.7-.023,5.621,5.621,0,0,1,2.267,2.232,6.782,6.782,0,0,1,.817,3.384A10.131,10.131,0,0,1,1333,428.89Zm-3.959-2.187a2.025,2.025,0,0,0-.691-1.612,2.543,2.543,0,0,0-1.726-.6,2.493,2.493,0,0,0-1.668.575,2.556,2.556,0,0,0-.841,1.634Z" transform="translate(-1256.989 -418.115)" fill="#6b6b6b"/>
          <path id="Path_10628" data-name="Path 10628" d="M1311.49,424.369a4.784,4.784,0,0,1-2,1.891,7.026,7.026,0,0,1-3.343.72h-1.971a.489.489,0,0,0-.489.489v4.4a1.126,1.126,0,0,1-1.125,1.126h-1.718a1.126,1.126,0,0,1-1.126-1.126V417.661a1.126,1.126,0,0,1,1.126-1.126h5.3a7.325,7.325,0,0,1,3.3.673,4.635,4.635,0,0,1,2.019,1.857,5.394,5.394,0,0,1,.673,2.716A5.25,5.25,0,0,1,1311.49,424.369Zm-3.946-1.079a2.321,2.321,0,0,0,0-3.017,2.365,2.365,0,0,0-1.694-.534h-1.033a1.126,1.126,0,0,0-1.126,1.126V422.7a1.126,1.126,0,0,0,1.126,1.126h1.033A2.365,2.365,0,0,0,1307.544,423.289Z" transform="translate(-1250.261 -416.535)" fill="#6b6b6b"/>
          <path id="Path_10629" data-name="Path 10629" d="M1342.43,424.357a5.584,5.584,0,0,1,2.038-2.3,5.326,5.326,0,0,1,2.88-.806,4.947,4.947,0,0,1,2.384.553,4.272,4.272,0,0,1,1.207.947c.129.148.371-.105.371-.3h0a1.176,1.176,0,0,1,1.175-1.176h1.588a1.176,1.176,0,0,1,1.175,1.176V433.27a1.175,1.175,0,0,1-1.175,1.175h-1.588a1.175,1.175,0,0,1-1.175-1.175V433.1a.212.212,0,0,0-.37-.142,4.443,4.443,0,0,1-1.231.962,4.95,4.95,0,0,1-2.384.553,5.221,5.221,0,0,1-2.857-.818,5.642,5.642,0,0,1-2.038-2.326,8.478,8.478,0,0,1,0-6.969Zm8.062,1.175a2.649,2.649,0,0,0-1.894-.851,2.8,2.8,0,0,0-1.694.5,3.023,3.023,0,0,0-1.214,2.653,3.262,3.262,0,0,0,.818,2.338,2.742,2.742,0,0,0,3.985.011,3.716,3.716,0,0,0,0-4.653Z" transform="translate(-1264.056 -418.084)" fill="#6b6b6b"/>
          <path id="Path_10630" data-name="Path 10630" d="M1371.772,421.863a4.215,4.215,0,0,1,.517-.271,1.258,1.258,0,0,1,1.721,1.216v1.726a1.075,1.075,0,0,1-1.052,1.1h0a3.135,3.135,0,0,0-2.149.642,2.922,2.922,0,0,0-.716,2.251v4.858a1.162,1.162,0,0,1-1.137,1.185H1367.4a1.162,1.162,0,0,1-1.137-1.185V422.569a1.162,1.162,0,0,1,1.137-1.185h1.553a1.162,1.162,0,0,1,1.137,1.185v.569a.126.126,0,0,0,.227.08A5.056,5.056,0,0,1,1371.772,421.863Z" transform="translate(-1272.14 -418.129)" fill="#6b6b6b"/>
          <path id="Path_10631" data-name="Path 10631" d="M1384.851,417.623v14.261a1.108,1.108,0,0,1-1.126,1.088h-1.718a1.107,1.107,0,0,1-1.126-1.088V417.623a1.107,1.107,0,0,1,1.126-1.088h1.718A1.108,1.108,0,0,1,1384.851,417.623Z" transform="translate(-1276.945 -416.535)" fill="#6b6b6b"/>
        </g>
      </g>
    </g>
  </g>
</svg>
