<svg xmlns="http://www.w3.org/2000/svg" width="25.609" height="19.004" viewBox="0 0 25.609 19.004">
  <g id="Group_183" data-name="Group 183" transform="translate(0 0)">
    <path id="Path_116" data-name="Path 116" d="M-604.354,6855.1c0-.009-.01-.03-.01-.04s-.009-.03-.019-.05-.01-.029-.019-.05-.01-.029-.019-.049-.01-.029-.019-.05-.01-.031-.019-.05-.01-.03-.019-.05a.106.106,0,0,1-.019-.049.073.073,0,0,1-.019-.041c-.01-.02-.019-.029-.029-.05s-.019-.03-.029-.04a.149.149,0,0,0-.029-.04c-.01-.01-.019-.029-.029-.041s-.019-.03-.029-.039-.019-.03-.029-.04-.019-.03-.029-.041-.019-.03-.029-.04-.019-.029-.029-.04a.15.15,0,0,1-.029-.041c-.01-.01-.019-.03-.029-.04a.116.116,0,0,1-.029-.04c-.01-.009-.019-.029-.029-.04l-.029-.031c-.01-.009-.019-.029-.039-.039l-.029-.031a.133.133,0,0,1-.039-.04.127.127,0,0,0-.039-.029c-.01-.01-.029-.021-.038-.03a.111.111,0,0,0-.038-.029c-.01-.01-.029-.021-.038-.031s-.029-.02-.039-.029-.029-.02-.038-.03-.029-.02-.038-.029-.029-.021-.039-.03-.029-.021-.038-.029-.029-.021-.038-.031a.079.079,0,0,0-.039-.021.275.275,0,0,0-.048-.029.076.076,0,0,0-.038-.02c-.019-.01-.029-.02-.048-.02s-.029-.009-.038-.02-.029-.02-.048-.02-.029-.01-.038-.02-.029-.01-.048-.021-.029-.01-.048-.021-.029-.009-.048-.019-.029-.01-.048-.021-.029-.009-.048-.02-.029-.01-.048-.021-.029-.01-.048-.01-.029-.009-.048-.009-.029-.01-.048-.01-.029-.009-.048-.009-.029-.01-.048-.01a.46.46,0,0,1-.048-.009c-.019,0-.029-.01-.048-.01s-.038-.01-.058-.01a.089.089,0,0,1-.048-.009.115.115,0,0,1-.058-.01h-21.087a.117.117,0,0,0-.058.01.089.089,0,0,0-.048.009c-.019,0-.038.01-.058.01s-.029.01-.048.01a.462.462,0,0,0-.048.009c-.019,0-.029.01-.048.01s-.029.009-.048.009-.029.01-.048.01-.029.009-.048.009-.029.01-.048.01-.029.009-.048.021-.029.009-.048.02-.029.01-.048.021-.029.01-.048.019-.029.01-.048.021a.492.492,0,0,0-.048.021c-.01.009-.029.009-.039.02s-.029.02-.048.02-.029.009-.039.02-.029.02-.048.02a.069.069,0,0,1-.038.02c-.019.01-.029.021-.048.029a.072.072,0,0,1-.038.021c-.01.01-.029.021-.038.031s-.029.019-.039.029-.029.021-.039.03-.029.02-.038.029-.029.021-.038.03-.029.02-.038.029-.029.021-.038.031a.168.168,0,0,1-.039.029c-.01.009-.029.02-.038.03a.144.144,0,0,1-.038.029.136.136,0,0,0-.039.04l-.029.031c-.01.009-.019.029-.038.039l-.029.031c-.01.009-.019.029-.029.04a.151.151,0,0,0-.029.04c-.01.01-.019.03-.029.04a.138.138,0,0,0-.029.041c-.01.009-.019.03-.029.04s-.019.03-.029.04-.019.029-.029.041-.019.03-.029.04-.019.029-.029.039-.019.029-.029.041-.019.03-.029.04-.019.029-.029.04-.019.03-.019.05a.081.081,0,0,0-.019.041.1.1,0,0,0-.019.049c-.01.02-.01.029-.019.05s-.01.029-.019.05-.01.029-.019.05-.01.03-.019.049-.01.03-.019.05-.01.031-.019.05-.01.03-.01.04a2.5,2.5,0,0,0-.135.818v13.833a2.557,2.557,0,0,0,2.407,2.594h20.682a2.494,2.494,0,0,0,2.378-1.8c.01-.04.02-.081.029-.13a2.525,2.525,0,0,0,.087-.668v-13.833a1.55,1.55,0,0,0-.077-.818Zm-23.465.14c.01-.009.019-.02.029-.02s.019-.01.019-.021.019-.019.029-.019.019-.01.029-.021.019-.01.039-.021.019-.01.029-.01.019-.009.039-.019.019-.01.029-.01.029-.009.038-.009.019-.01.029-.01.029-.009.038-.009a.034.034,0,0,0,.029-.01.089.089,0,0,0,.048-.009h20.759a.089.089,0,0,1,.048.009.034.034,0,0,1,.029.01c.01,0,.029.009.038.009s.019.01.029.01.029.009.039.009.019.01.029.01a.077.077,0,0,1,.038.019c.01,0,.019.01.029.01s.019.01.039.021.019.009.029.021.019.009.029.019.019.01.019.021.019.02.029.02.01.01.02.01l-10.226,10.591a.811.811,0,0,1-.587.25.81.81,0,0,1-.587-.25l-10.225-10.591c-.01,0,0-.01,0-.01Zm-.328,2.134,5.276,5.466-5.276,5.465Zm21.424,13.245h-20.567a.794.794,0,0,1-.53-.2l6.133-6.353,2.9,3a2.439,2.439,0,0,0,1.772.758,2.44,2.44,0,0,0,1.772-.758l2.917-3.021,6.143,6.362a.83.83,0,0,1-.539.21Zm.838-2.344-5.257-5.445,5.257-5.445Zm0,0" transform="translate(629.86 -6853.345)" fill="#fff"/>
  </g>
</svg>
