<svg id="envelope" xmlns="http://www.w3.org/2000/svg" width="19.335" height="14.501" viewBox="0 0 19.335 14.501">
  <g id="Group_2456" data-name="Group 2456" transform="translate(0 0)">
    <g id="Group_2455" data-name="Group 2455" transform="translate(0 0)">
      <path id="Path_10560" data-name="Path 10560" d="M7.056,65.177c2.654,2.247,7.31,6.2,8.678,7.434a.808.808,0,0,0,1.169,0c1.37-1.234,6.026-5.188,8.68-7.435a.4.4,0,0,0,.057-.556A1.6,1.6,0,0,0,24.376,64H8.264A1.6,1.6,0,0,0,7,64.621.4.4,0,0,0,7.056,65.177Z" transform="translate(-6.653 -64)" fill="#6b6b6b"/>
      <path id="Path_10561" data-name="Path 10561" d="M19.1,126.449a.4.4,0,0,0-.43.058c-2.943,2.495-6.7,5.692-7.88,6.757a1.631,1.631,0,0,1-2.248,0c-1.26-1.135-5.477-4.72-7.879-6.756a.4.4,0,0,0-.663.307v10.13a1.613,1.613,0,0,0,1.611,1.611H17.723a1.613,1.613,0,0,0,1.611-1.611v-10.13A.4.4,0,0,0,19.1,126.449Z" transform="translate(0 -124.055)" fill="#6b6b6b"/>
    </g>
  </g>
</svg>
