<svg xmlns="http://www.w3.org/2000/svg" width="202.205" height="233.671" viewBox="0 0 202.205 233.671">
  <g id="Group_2917" data-name="Group 2917" transform="translate(-1342.994 -660.048)">
    <g id="Group_2918" data-name="Group 2918" transform="translate(-11.435 -10)">
      <g id="Group_2915" data-name="Group 2915" transform="translate(1354.429 670.048)">
        <g id="Group_2909" data-name="Group 2909" transform="translate(23.903)">
          <g id="Group_2908" data-name="Group 2908">
            <g id="Group_2907" data-name="Group 2907">
              <path id="Path_10727" data-name="Path 10727" d="M1444.732,756.251c26.09,3.979,40.133-29.741,40.133-29.741,8.739-14.266,9.9-41.082,9.9-41.082.066-25.276-23.5-27.785-23.5-27.785a28.506,28.506,0,0,0-22.993,6.191c7.517,8.844,19.626,8.979,19.626,8.979-11.769,6.769-23.61-6.065-23.61-6.065-15.924-16.541-33.843-6.732-33.843-6.732-7.757-8.24-9.519-23.967-9.519-23.967-3.127,38.986-33.837,39.07-33.837,39.07,20.079.674,26.722,13.269,26.722,13.269-.511,101.936,87.788,98.981,87.788,98.981-44.938-11.773-49.072-43.15-49.072-43.15-4.246-27.951,12.649-26.437,12.649-26.437,15.918,3.095,11.5,25.646,11.5,25.646C1453.576,756.251,1444.732,756.251,1444.732,756.251ZM1401.2,697.57c-7.272-23.3-30.911-22.589-30.911-22.589,27.568-2.747,30.522-31.656,30.522-31.656,5.6,26.8,28.083,31.358,28.083,31.358C1403.778,678.9,1401.2,697.57,1401.2,697.57Z" transform="translate(-1367.088 -636.048)" fill="#fff"/>
            </g>
          </g>
        </g>
        <g id="Group_2914" data-name="Group 2914" transform="translate(0 180.606)">
          <g id="Group_2913" data-name="Group 2913">
            <g id="Group_2911" data-name="Group 2911" transform="translate(20.068 41.332)">
              <g id="Group_2910" data-name="Group 2910">
                <path id="Path_10728" data-name="Path 10728" d="M1365.824,756.423a5.466,5.466,0,0,1,2.088-2.088,5.92,5.92,0,0,1,2.97-.75,5.855,5.855,0,0,1,3.374.988,5.173,5.173,0,0,1,2.024,2.732h-2.651a2.733,2.733,0,0,0-1.11-1.235,3.258,3.258,0,0,0-1.654-.412,3.4,3.4,0,0,0-1.785.47,3.194,3.194,0,0,0-1.218,1.324,4.819,4.819,0,0,0,0,4.007,3.2,3.2,0,0,0,1.218,1.333,3.411,3.411,0,0,0,1.785.468,3.206,3.206,0,0,0,1.654-.419,2.778,2.778,0,0,0,1.11-1.242h2.651a5.142,5.142,0,0,1-2.016,2.74,5.862,5.862,0,0,1-3.382.98,5.939,5.939,0,0,1-2.97-.75,5.488,5.488,0,0,1-2.088-2.081,6.379,6.379,0,0,1,0-6.065Z" transform="translate(-1365.057 -753.585)" fill="#fff"/>
                <path id="Path_10729" data-name="Path 10729" d="M1386.289,763.322h3.786v1.826h-6.09V753.664h2.3Z" transform="translate(-1348.243 -753.515)" fill="#fff"/>
                <path id="Path_10730" data-name="Path 10730" d="M1402.23,753.664v11.484h-2.3V753.664Z" transform="translate(-1334.084 -753.515)" fill="#fff"/>
                <path id="Path_10731" data-name="Path 10731" d="M1424.112,765.156h-2.3l-5.217-7.881v7.881h-2.3v-11.5h2.3l5.217,7.9v-7.9h2.3Z" transform="translate(-1321.327 -753.523)" fill="#fff"/>
                <path id="Path_10732" data-name="Path 10732" d="M1434.938,753.664v11.484h-2.3V753.664Z" transform="translate(-1305.032 -753.515)" fill="#fff"/>
                <path id="Path_10733" data-name="Path 10733" d="M1447.468,756.423a5.465,5.465,0,0,1,2.088-2.088,5.919,5.919,0,0,1,2.97-.75,5.854,5.854,0,0,1,3.374.988,5.162,5.162,0,0,1,2.022,2.732h-2.649a2.732,2.732,0,0,0-1.111-1.235,3.256,3.256,0,0,0-1.654-.412,3.392,3.392,0,0,0-1.784.47,3.191,3.191,0,0,0-1.218,1.324,4.82,4.82,0,0,0,0,4.007,3.193,3.193,0,0,0,1.218,1.333,3.408,3.408,0,0,0,1.784.468,3.2,3.2,0,0,0,1.654-.419,2.778,2.778,0,0,0,1.111-1.242h2.649a5.133,5.133,0,0,1-2.015,2.74,5.863,5.863,0,0,1-3.382.98,5.938,5.938,0,0,1-2.97-.75,5.486,5.486,0,0,1-2.088-2.081,6.381,6.381,0,0,1,0-6.065Z" transform="translate(-1292.538 -753.585)" fill="#fff"/>
              </g>
            </g>
            <g id="Group_2912" data-name="Group 2912">
              <path id="Path_10734" data-name="Path 10734" d="M1378.047,733.884v2.36a2.113,2.113,0,0,1-2.109,2.119h-5.068a.915.915,0,0,0-.912.918v21.037a2.116,2.116,0,0,1-2.111,2.12h-3.217a2.115,2.115,0,0,1-2.109-2.12V739.281a.917.917,0,0,0-.914-.918h-5.068a2.113,2.113,0,0,1-2.109-2.119v-2.36a2.115,2.115,0,0,1,2.109-2.12h19.4A2.115,2.115,0,0,1,1378.047,733.884Z" transform="translate(-1354.429 -731.635)" fill="#fff"/>
              <path id="Path_10735" data-name="Path 10735" d="M1390.534,740.629a10.912,10.912,0,0,1,2.523,7.625v12.124a2.115,2.115,0,0,1-2.109,2.12h-3.176a2.115,2.115,0,0,1-2.109-2.12v-11.12a5.367,5.367,0,0,0-1.261-3.8,4.926,4.926,0,0,0-6.785,0,5.358,5.358,0,0,0-1.261,3.8v11.12a2.115,2.115,0,0,1-2.109,2.12h-3.219a2.115,2.115,0,0,1-2.109-2.12V733.816a2.115,2.115,0,0,1,2.109-2.12h3.219a2.115,2.115,0,0,1,2.109,2.12v5.644a.545.545,0,0,0,.785.493l2.3-1.137a9.848,9.848,0,0,1,4.394-.961A8.619,8.619,0,0,1,1390.534,740.629Z" transform="translate(-1341.559 -731.696)" fill="#fff"/>
              <path id="Path_10736" data-name="Path 10736" d="M1407.738,749.043h-16.692a5.016,5.016,0,0,0,1.445,3.429,4.41,4.41,0,0,0,3.127,1.186,3.876,3.876,0,0,0,3.839-2.328h7.851a10.842,10.842,0,0,1-6.125,7.245,12.672,12.672,0,0,1-5.306,1.08,12.912,12.912,0,0,1-6.3-1.511,10.738,10.738,0,0,1-4.312-4.313,13.326,13.326,0,0,1-1.552-6.556,13.473,13.473,0,0,1,1.531-6.558,10.615,10.615,0,0,1,4.29-4.313,13.991,13.991,0,0,1,12.553-.043,10.545,10.545,0,0,1,4.248,4.184,12.715,12.715,0,0,1,1.531,6.341A18.728,18.728,0,0,1,1407.738,749.043Zm-7.419-4.1a3.791,3.791,0,0,0-1.293-3.019,4.763,4.763,0,0,0-3.234-1.122,4.676,4.676,0,0,0-3.127,1.078,4.782,4.782,0,0,0-1.575,3.063Z" transform="translate(-1328.417 -728.853)" fill="#fff"/>
              <path id="Path_10737" data-name="Path 10737" d="M1441.17,749.043h-16.692a5.018,5.018,0,0,0,1.444,3.429,4.411,4.411,0,0,0,3.127,1.186,3.876,3.876,0,0,0,3.839-2.328h7.851a10.841,10.841,0,0,1-6.125,7.245,12.668,12.668,0,0,1-5.306,1.08,12.911,12.911,0,0,1-6.3-1.511,10.724,10.724,0,0,1-4.312-4.313,13.324,13.324,0,0,1-1.552-6.556,13.473,13.473,0,0,1,1.531-6.558,10.616,10.616,0,0,1,4.29-4.313,13.991,13.991,0,0,1,12.553-.043,10.548,10.548,0,0,1,4.249,4.184,12.717,12.717,0,0,1,1.531,6.341A18.622,18.622,0,0,1,1441.17,749.043Zm-7.419-4.1a3.79,3.79,0,0,0-1.293-3.019,4.763,4.763,0,0,0-3.235-1.122,4.676,4.676,0,0,0-3.127,1.078,4.782,4.782,0,0,0-1.575,3.063Z" transform="translate(-1298.721 -728.853)" fill="#fff"/>
              <path id="Path_10738" data-name="Path 10738" d="M1425.567,746.377a8.954,8.954,0,0,1-3.741,3.544,13.17,13.17,0,0,1-6.263,1.348h-3.694a.916.916,0,0,0-.916.918v8.238a2.11,2.11,0,0,1-2.111,2.109h-3.218a2.109,2.109,0,0,1-2.109-2.109V733.807a2.11,2.11,0,0,1,2.109-2.111h9.938a13.72,13.72,0,0,1,6.176,1.261,8.674,8.674,0,0,1,3.784,3.48,10.122,10.122,0,0,1,1.261,5.089A9.839,9.839,0,0,1,1425.567,746.377Zm-7.395-2.024a4.346,4.346,0,0,0,0-5.653,4.435,4.435,0,0,0-3.174-1h-1.935a2.109,2.109,0,0,0-2.109,2.109v3.437a2.109,2.109,0,0,0,2.109,2.109H1415A4.425,4.425,0,0,0,1418.172,744.353Z" transform="translate(-1310.828 -731.696)" fill="#fff"/>
              <path id="Path_10739" data-name="Path 10739" d="M1432.868,740.662a10.494,10.494,0,0,1,3.82-4.316,9.988,9.988,0,0,1,5.4-1.511,9.263,9.263,0,0,1,4.467,1.037,7.988,7.988,0,0,1,2.262,1.775c.242.278.695-.2.695-.566h0a2.2,2.2,0,0,1,2.2-2.2h2.976a2.2,2.2,0,0,1,2.2,2.2v20.283a2.2,2.2,0,0,1-2.2,2.2h-2.976a2.2,2.2,0,0,1-2.2-2.2v-.323a.4.4,0,0,0-.693-.266,8.3,8.3,0,0,1-2.307,1.8,9.286,9.286,0,0,1-4.467,1.035,9.8,9.8,0,0,1-5.354-1.531,10.607,10.607,0,0,1-3.82-4.36,15.895,15.895,0,0,1,0-13.059Zm15.11,2.2a4.971,4.971,0,0,0-3.552-1.594,5.255,5.255,0,0,0-3.174.94,5.669,5.669,0,0,0-2.275,4.97,6.115,6.115,0,0,0,1.533,4.383,5.14,5.14,0,0,0,7.468.021,6.972,6.972,0,0,0,0-8.72Z" transform="translate(-1286.003 -728.908)" fill="#fff"/>
              <path id="Path_10740" data-name="Path 10740" d="M1458.159,735.823a8.209,8.209,0,0,1,.969-.506,2.357,2.357,0,0,1,3.225,2.277v3.235a2.015,2.015,0,0,1-1.971,2.056h0a5.876,5.876,0,0,0-4.026,1.2q-1.343,1.2-1.342,4.22v9.1a2.178,2.178,0,0,1-2.13,2.223h-2.911a2.178,2.178,0,0,1-2.13-2.223V737.148a2.178,2.178,0,0,1,2.13-2.222h2.911a2.178,2.178,0,0,1,2.13,2.222v1.065a.235.235,0,0,0,.425.149A9.474,9.474,0,0,1,1458.159,735.823Z" transform="translate(-1271.456 -728.827)" fill="#fff"/>
              <path id="Path_10741" data-name="Path 10741" d="M1465.013,733.735v26.724a2.075,2.075,0,0,1-2.109,2.039h-3.218a2.076,2.076,0,0,1-2.109-2.039V733.735a2.075,2.075,0,0,1,2.109-2.039h3.218A2.075,2.075,0,0,1,1465.013,733.735Z" transform="translate(-1262.808 -731.696)" fill="#fff"/>
            </g>
          </g>
        </g>
      </g>
      <g id="Group_2916" data-name="Group 2916" transform="translate(1381.537 677.325)" opacity="0.7">
        <path id="Path_10742" data-name="Path 10742" d="M1399.3,639.9s-2.952,28.909-30.52,31.656c0,0,23.639-.716,30.91,22.589,0,0,2.576-18.671,27.695-22.887C1427.39,671.26,1404.91,666.705,1399.3,639.9Z" transform="translate(-1368.785 -639.902)" fill="#fff"/>
      </g>
    </g>
  </g>
</svg>
