<svg id="phone-call" xmlns="http://www.w3.org/2000/svg" width="17.125" height="17.125" viewBox="0 0 17.125 17.125">
  <g id="Group_2457" data-name="Group 2457" transform="translate(0)">
    <path id="Path_10562" data-name="Path 10562" d="M15.773,11.275a9.79,9.79,0,0,1-3.072-.489,1.316,1.316,0,0,0-1.337.283L9.421,12.538A10.859,10.859,0,0,1,4.588,7.706l1.429-1.9a1.364,1.364,0,0,0,.334-1.379,9.786,9.786,0,0,1-.492-3.077A1.354,1.354,0,0,0,4.507,0H1.352A1.354,1.354,0,0,0,0,1.352,15.791,15.791,0,0,0,15.773,17.125a1.354,1.354,0,0,0,1.352-1.352V12.627A1.354,1.354,0,0,0,15.773,11.275Z" fill="#6b6b6b"/>
  </g>
</svg>
