<svg xmlns="http://www.w3.org/2000/svg" width="19.854" height="20.568" viewBox="0 0 19.854 20.568">
  <g id="Group_181" data-name="Group 181" transform="translate(0 0)">
    <path id="Path_113" data-name="Path 113" d="M-1414.24,6853.772a2.53,2.53,0,0,1,.607-1.635,2.31,2.31,0,0,1,1.723-.788h3.129a2.364,2.364,0,0,1,2.321,2.134,11.988,11.988,0,0,0,.423,2.114,2.506,2.506,0,0,1-.578,2.425l-1.271,1.316a14.95,14.95,0,0,0,5.787,5.993l1.271-1.316a2.293,2.293,0,0,1,2.34-.6,10.943,10.943,0,0,0,2.042.439,2.38,2.38,0,0,1,2.06,2.4v3.241a2.468,2.468,0,0,1-.761,1.785,2.257,2.257,0,0,1-1.791.619,18.345,18.345,0,0,1-6.451-1.835,19.241,19.241,0,0,1-5.315-3.89,19.73,19.73,0,0,1-3.755-5.5,20.213,20.213,0,0,1-1.771-6.684,1.661,1.661,0,0,1-.01-.22Zm6.749,2.544a.787.787,0,0,0-.038-.25,13.59,13.59,0,0,1-.481-2.4.785.785,0,0,0-.78-.709h-3.129a.768.768,0,0,0-.578.26.827.827,0,0,0-.2.628,17.9,17.9,0,0,0,15.887,16.456.769.769,0,0,0,.606-.209.824.824,0,0,0,.25-.6v-3.241a.807.807,0,0,0-.683-.808,12.276,12.276,0,0,1-2.321-.5.775.775,0,0,0-.789.2l-2.07,2.144-.5-.259a16.506,16.506,0,0,1-7.231-7.49l-.25-.519,2.07-2.145a.707.707,0,0,0,.241-.558Zm0,0" transform="translate(1414.24 -6851.35)" fill="#fff"/>
  </g>
</svg>
