<svg xmlns="http://www.w3.org/2000/svg" width="98.862" height="133.036" viewBox="0 0 98.862 133.036">
  <g id="medal" transform="translate(0.25 0.25)">
    <path id="Path_10696" data-name="Path 10696" d="M40.5,78.828A38.828,38.828,0,1,0,79.328,40,38.871,38.871,0,0,0,40.5,78.828ZM79.328,45.177A33.651,33.651,0,1,1,45.677,78.828,33.688,33.688,0,0,1,79.328,45.177Zm0,0" transform="translate(-30.146 -29.646)" fill="#6b6b6b" stroke="#6b6b6b" stroke-width="0.5"/>
    <path id="Path_10697" data-name="Path 10697" d="M95.68,113.389l10.034,9.886-2.308,13.894a2.589,2.589,0,0,0,3.746,2.722l12.5-6.491,12.5,6.491a2.589,2.589,0,0,0,3.746-2.722l-2.308-13.894,10.034-9.886a2.588,2.588,0,0,0-1.432-4.4l-13.924-2.1-6.3-12.6a2.588,2.588,0,0,0-4.63,0l-6.3,12.6-13.924,2.1a2.588,2.588,0,0,0-1.432,4.4Zm17.456-1.58a2.59,2.59,0,0,0,1.93-1.4l4.586-9.172,4.585,9.172a2.59,2.59,0,0,0,1.93,1.4l10.135,1.526-7.3,7.194a2.593,2.593,0,0,0-.737,2.269l1.681,10.112-9.1-4.724a2.588,2.588,0,0,0-2.385,0l-9.1,4.724,1.681-10.112a2.587,2.587,0,0,0-.737-2.269l-7.3-7.194Zm0,0" transform="translate(-70.471 -68.823)" fill="#6b6b6b" stroke="#6b6b6b" stroke-width="0.5"/>
    <path id="Path_10698" data-name="Path 10698" d="M185.677,2.589A2.589,2.589,0,1,1,183.089,0,2.588,2.588,0,0,1,185.677,2.589Zm0,0" transform="translate(-133.907)" fill="#6b6b6b" stroke="#6b6b6b" stroke-width="0.5"/>
    <path id="Path_10699" data-name="Path 10699" d="M37.482,5.662A49.186,49.186,0,0,0,16.69,89.787L1.1,117.27a2.589,2.589,0,0,0,2.778,3.812l17.71-3.677,6.225,17.54a2.588,2.588,0,0,0,4.689.414l17.185-30.213,17.184,30.213a2.587,2.587,0,0,0,2.249,1.308c.076,0,.153,0,.229-.009a2.592,2.592,0,0,0,2.212-1.713l6.224-17.54,17.71,3.677a2.589,2.589,0,0,0,2.778-3.812L82.672,89.787A49.186,49.186,0,0,0,61.881,5.662,2.589,2.589,0,0,0,60.6,10.678a44,44,0,1,1-21.838,0,2.589,2.589,0,1,0-1.28-5.016ZM30.795,127.881l-5.087-14.335a2.589,2.589,0,0,0-2.966-1.669L8.421,114.851,20.763,93.1a49.286,49.286,0,0,0,24.578,9.207Zm45.826-16a2.589,2.589,0,0,0-2.966,1.669l-5.086,14.335L54.021,102.306A49.289,49.289,0,0,0,78.6,93.1l12.342,21.752Zm0,0" transform="translate(-0.5 -4.136)" fill="#6b6b6b" stroke="#6b6b6b" stroke-width="0.5"/>
  </g>
</svg>
