<svg xmlns="http://www.w3.org/2000/svg" width="127.932" height="122.801" viewBox="0 0 127.932 122.801">
  <g id="XMLID_806_" transform="translate(-72.75 0.25)">
    <g id="XMLID_386_" transform="translate(73 0)">
      <path id="XMLID_389_" d="M127.162,77.3A50.226,50.226,0,0,0,88.106,33.256V26.933a8.461,8.461,0,0,0-2.042-16.671H68.147A8.461,8.461,0,0,0,66.1,26.933v6.34A49.967,49.967,0,0,0,41.6,46.753a50.508,50.508,0,0,0-4.225,4.8c-.062,0-.125-.009-.189-.009H19.452a2.488,2.488,0,1,0,0,4.977H33.987a49.886,49.886,0,0,0-4.416,9.565H2.488a2.488,2.488,0,0,0,0,4.977H28.166a50.6,50.6,0,0,0-1.235,9.565h-11a2.488,2.488,0,1,0,0,4.977H27.01a50.522,50.522,0,0,0,1.554,9.565H12.442a2.488,2.488,0,1,0,0,4.977H30.152A50.26,50.26,0,0,0,72.174,132.32q2.466.243,4.932.243a50.388,50.388,0,0,0,27.432-8.108,2.489,2.489,0,1,0-2.716-4.171,45.29,45.29,0,1,1,13.339-13.356,2.488,2.488,0,1,0,4.174,2.71A50.427,50.427,0,0,0,127.162,77.3Zm-62.5-58.574a3.488,3.488,0,0,1,3.484-3.484H86.064a3.484,3.484,0,1,1,0,6.968H68.147A3.488,3.488,0,0,1,64.663,18.723Zm6.419,13.695V27.184H83.129v5.225A50.7,50.7,0,0,0,71.081,32.418Z" transform="translate(0 -10.262)" fill="#6b6b6b" stroke="#6b6b6b" stroke-width="0.5"/>
      <path id="XMLID_391_" d="M438.258,425.5a2.489,2.489,0,1,0,1.759.729A2.5,2.5,0,0,0,438.258,425.5Z" transform="translate(-327.33 -322.169)" fill="#6b6b6b" stroke="#6b6b6b" stroke-width="0.5"/>
      <path id="XMLID_394_" d="M193.475,144.609a38.6,38.6,0,1,0,38.6,38.6A38.647,38.647,0,0,0,193.475,144.609Zm0,72.23A33.626,33.626,0,1,1,227.1,183.212,33.665,33.665,0,0,1,193.475,216.839Z" transform="translate(-116.332 -111.177)" fill="#6b6b6b" stroke="#6b6b6b" stroke-width="0.5"/>
      <path id="XMLID_397_" d="M285.957,220.14l-12.325,12.325a7.713,7.713,0,0,0-6.831,0l-5.516-5.516a2.489,2.489,0,0,0-3.519,3.519l5.516,5.516a7.733,7.733,0,1,0,13.87,0l11.964-11.964h0l.362-.362a2.488,2.488,0,0,0-3.519-3.519Zm-15.741,22.016a2.756,2.756,0,1,1,2.756-2.756A2.759,2.759,0,0,1,270.216,242.156Z" transform="translate(-193.073 -167.365)" fill="#6b6b6b" stroke="#6b6b6b" stroke-width="0.5"/>
      <path id="XMLID_398_" d="M402.449,289.86h-2.306a2.488,2.488,0,1,0,0,4.977h2.306a2.488,2.488,0,1,0,0-4.977Z" transform="translate(-298.699 -220.283)" fill="#6b6b6b" stroke="#6b6b6b" stroke-width="0.5"/>
      <path id="XMLID_399_" d="M197.876,289.616H195.57a2.488,2.488,0,1,0,0,4.977h2.305a2.488,2.488,0,1,0,0-4.977Z" transform="translate(-145.034 -220.1)" fill="#6b6b6b" stroke="#6b6b6b" stroke-width="0.5"/>
      <path id="XMLID_400_" d="M302.611,190.1a2.489,2.489,0,0,0,2.488-2.488v-2.305a2.488,2.488,0,1,0-4.977,0v2.305A2.489,2.489,0,0,0,302.611,190.1Z" transform="translate(-225.438 -139.879)" fill="#6b6b6b" stroke="#6b6b6b" stroke-width="0.5"/>
      <path id="XMLID_424_" d="M302.367,387.393a2.489,2.489,0,0,0-2.488,2.488v2.305a2.488,2.488,0,0,0,4.977,0v-2.305A2.489,2.489,0,0,0,302.367,387.393Z" transform="translate(-225.255 -293.545)" fill="#6b6b6b" stroke="#6b6b6b" stroke-width="0.5"/>
      <path id="XMLID_425_" d="M2.488,351.44a2.488,2.488,0,1,0,1.759,4.248,2.488,2.488,0,0,0-1.759-4.248Z" transform="translate(0 -266.539)" fill="#6b6b6b" stroke="#6b6b6b" stroke-width="0.5"/>
    </g>
  </g>
</svg>
